Coordinates
version=1
nRows=6
nColumns=63
inDegrees=yes

Units are S.I. units (second, meters, Newtons, ...)
If the header above contains a line with 'inDegrees', this indicates whether rotational values are in degrees (yes) or radians (no).

endheader
time	pelvis_tilt	pelvis_list	pelvis_rotation	pelvis_tx	pelvis_ty	pelvis_tz	hip_flexion_r	hip_adduction_r	hip_rotation_r	knee_angle_r	knee_angle_r_beta	ankle_angle_r	subtalar_angle_r	mtp_angle_r	hip_flexion_l	hip_adduction_l	hip_rotation_l	knee_angle_l	knee_angle_l_beta	ankle_angle_l	subtalar_angle_l	mtp_angle_l	L5_S1_Flex_Ext	L5_S1_Lat_Bending	L5_S1_axial_rotation	L4_L5_Flex_Ext	L4_L5_Lat_Bending	L4_L5_axial_rotation	L3_L4_Flex_Ext	L3_L4_Lat_Bending	L3_L4_axial_rotation	L2_L3_Flex_Ext	L2_L3_Lat_Bending	L2_L3_axial_rotation	L1_L2_Flex_Ext	L1_L2_Lat_Bending	L1_L2_axial_rotation	L1_T12_Flex_Ext	L1_T12_Lat_Bending	L1_T12_axial_rotation	Abs_r3	Abs_r2	Abs_r1	Abs_t1	Abs_t2	neck_flexion	neck_bending	neck_rotation	arm_flex_r	arm_add_r	arm_rot_r	elbow_flex_r	pro_sup_r	wrist_flex_r	wrist_dev_r	arm_flex_l	arm_add_l	arm_rot_l	elbow_flex_l	pro_sup_l	wrist_flex_l	wrist_dev_l
      2.59090909	     -0.64403591	     -3.30215851	    105.38474336	      0.24699344	      0.87016994	      0.76449980	      2.60386335	     -0.44685290	    -17.10217935	      9.41294436	      0.16428687	     32.17868658	     15.31251433	      0.00000000	      3.02438629	     -0.32434427	      4.93162546	      5.82556626	      0.10167531	     31.45577026	     10.90710285	      0.00000000	      0.19432399	      0.16935586	     -1.89434516	      0.36087909	      0.22524330	     -2.01274173	      0.31925489	      0.41177185	     -2.01274173	      0.22209289	      0.41177185	     -1.65755201	      0.18044926	      0.34535048	     -1.53915544	      0.11103673	      0.26233223	     -1.42075887	      1.38803686	      1.91578741	    -10.53577947	      0.00000000	      0.00000000	     23.95183132	      4.33592420	      1.00283924	      5.71563736	    -36.79372632	     53.27719150	     74.78558711	     57.15299064	     -2.72244493	     -3.97414358	      5.28489424	    -33.94953002	     48.86258444	     71.36644643	     89.23870072	      7.87675619	     -4.58104510
      2.61363636	     -0.57542656	     -3.34322082	    105.90634192	      0.24640580	      0.87030479	      0.76452062	      2.39350226	     -0.31995183	    -17.38336184	      8.95217505	      0.15624493	     31.91645730	     14.98951773	      0.00000000	      3.19861422	     -0.36618860	      5.23943971	      5.96890221	      0.10417700	     31.45883726	     11.10057386	      0.00000000	      0.19237602	      0.17841799	     -2.02467765	      0.35726150	      0.23729592	     -2.15122000	      0.31605456	      0.43380549	     -2.15122000	      0.21986655	      0.43380549	     -1.77159294	      0.17864037	      0.36382996	     -1.64505059	      0.10992366	      0.27636946	     -1.51850824	      1.37412264	      2.01829995	    -11.26064969	      0.00000000	      0.00000000	     23.99211872	      4.12510870	      1.42767376	      4.75375991	    -38.27321678	     53.25065759	     76.33518669	     58.28754553	     -2.97158947	     -2.41966017	      3.40726891	    -34.83756351	     46.26465622	     73.92030826	     89.29663559	      8.01341890	      0.28765209
      2.63636364	     -0.41463768	     -3.41304946	    106.07194128	      0.24599573	      0.87037578	      0.76418866	      2.26047109	     -0.09996986	    -17.38868364	      8.47593069	      0.14793290	     31.70856578	     14.90656411	      0.00000000	      3.29604725	     -0.50780810	      5.43230864	      5.99320927	      0.10460123	     31.30474297	     10.96701152	      0.00000000	      0.19348642	      0.20332685	     -2.12468239	      0.35932363	      0.27042470	     -2.25747504	      0.31787884	      0.49436889	     -2.25747504	      0.22113563	      0.49436889	     -1.85909709	      0.17967149	      0.41462410	     -1.72630444	      0.11055814	      0.31495328	     -1.59351180	      1.38205413	      2.30007394	    -11.81684607	      0.00000000	      0.00000000	     24.24960100	      3.85434378	      1.99116185	      3.39682614	    -39.34803554	     52.44387274	     77.61513522	     61.97004206	     -2.26452070	     -2.08360130	      0.86300175	    -35.07951157	     42.83025752	     76.05695819	     89.22044971	      9.35095980	      3.38921471
      2.65909091	     -0.26288905	     -3.56595633	    106.04842865	      0.24562622	      0.87017295	      0.76379101	      2.30751521	      0.06718052	    -17.09217377	      8.15232809	      0.14228497	     31.69503522	     14.97049635	      0.00000000	      3.42074464	     -0.60010028	      5.72018851	      5.98893382	      0.10452661	     31.09081699	     10.36579370	      0.00000000	      0.20104952	      0.22576178	     -2.19073062	      0.37336906	      0.30026316	     -2.32765129	      0.33030425	      0.54891719	     -2.32765129	      0.22977949	      0.54891719	     -1.91688930	      0.18669458	      0.46037342	     -1.77996863	      0.11487969	      0.34970499	     -1.64304797	      1.43607660	      2.55386238	    -12.18418651	      0.00000000	      0.00000000	     24.81277415	      3.75880968	      2.46603340	      1.40346783	    -39.92714853	     50.27671413	     78.63335562	     68.45926205	     -0.08232999	     -2.36032120	     -1.91311249	    -34.91005807	     39.60046042	     77.80465428	     88.88728077	     11.77722509	      5.08868417
      2.68181818	     -0.11887786	     -3.79032137	    105.78457559	      0.24546061	      0.86973503	      0.76345740	      2.53595829	      0.18016514	    -16.58323531	      8.00278411	      0.13967493	     31.85272518	     15.09869789	      0.00000000	      3.60441283	     -0.67007427	      5.72796309	      5.99996926	      0.10471922	     30.91905880	      9.78190409	      0.00000000	      0.21598149	      0.24827157	     -2.24647765	      0.40109923	      0.33020119	     -2.38688250	      0.35483599	      0.60364749	     -2.38688250	      0.24684525	      0.60364749	     -1.96566794	      0.20056041	      0.50627538	     -1.82526309	      0.12341182	      0.38457266	     -1.68485824	      1.54273419	      2.80849765	    -12.49423475	      0.00000000	      0.00000000	     25.41644100	      3.80438711	      3.12896000	     -0.06228932	    -40.38117155	     48.63158264	     79.45107378	     76.78492437	      2.20371664	     -3.66070165	     -5.01791257	    -34.62005979	     37.04784167	     79.30410627	     87.76333721	     13.00410618	      5.22912616
      2.70454545	      0.00043311	     -3.99621249	    105.58067714	      0.24531330	      0.86920854	      0.76308728	      2.77576784	      0.25541997	    -16.13138800	      7.95098432	      0.13877086	     32.11748344	     15.25612706	      0.00000000	      3.78076364	     -0.72704881	      5.71494342	      6.03015544	      0.10524607	     30.83937570	      9.32136503	      0.00000000	      0.23419433	      0.26254917	     -2.27001246	      0.43492229	      0.34919040	     -2.41188824	      0.38475786	      0.63836205	     -2.41188824	      0.26766070	      0.63836205	     -1.98626090	      0.21747285	      0.53539027	     -1.84438512	      0.13381864	      0.40668866	     -1.70250934	      1.67282668	      2.97000871	    -12.62512829	      0.00000000	      0.00000000	     25.85740729	      3.83285427	      3.23919155	     -1.52176369	    -40.80132150	     47.22627607	     80.30352610	     82.47866621	      4.04499752	     -5.24665985	     -7.66332536	    -34.39289945	     35.92718119	     80.31213090	     83.38814156	     13.36931776	      4.64935854
